# xmcd
#
# Track frame offsets:
#	150
#	14628
#	33888
#	49476
#	67299
#	81637
#	97399
#	115154
#	130687
#	146286
#	159277
#	174556
#	190263
#	203192
#
# Disc length: 2966
#
# Revision: 1
# Processed by: cddbd v1.5.1PL0 Copyright (c) Steve Scherf et al.
# Submitted via: VisiTrax 2.9.5.180 - For more info visit www.synapsa.com
# Normalized: r0:DSETVAR1
#
DISCID=cf0b940e
DTITLE=Various Artist - Mr. Music Country 11-03
DYEAR=2003
DGENRE=country
TTITLE0=David Ball - Amigo
TTITLE1=The Tractors - Don't Ever Take My Picture Down
TTITLE2=Jeannie Kendall - Smoky Lonesome
TTITLE3=Daryle Singletary - Dim Lights, Thick Smoke (And Loud, Loud Music)
TTITLE4=Terri Williams - She Loves The Devis Out'a Him
TTITLE5=Razzy Bailey - In Miami
TTITLE6=Sammy Kershaw - Bear, Beat and Amo
TTITLE7=Rodney Redman - Grain Of Salt
TTITLE8=Rhett Akins - Friday Night In Dixie
TTITLE9=Joanne Trosclair - Two Timing Chicken
TTITLE10=Ray Price - If You Think You're Lonely
TTITLE11=Billy Ray Reynolds - It'll Be Her
TTITLE12=J. J. Star - Livin' On Love
TTITLE13=Chip Taylor and Carrie Rodriguez - Memphis, Texas
EXTD=
EXTT0=
EXTT1=
EXTT2=
EXTT3=
EXTT4=
EXTT5=
EXTT6=
EXTT7=
EXTT8=
EXTT9=
EXTT10=
EXTT11=
EXTT12=
EXTT13=
PLAYORDER=
